<svg width="1000" height="1000" viewBox="0 0 1000 1000" fill="none" xmlns="http://www.w3.org/2000/svg">
<g clip-path="url(#clip0_11457_22632)">
<path d="M1000 0H0V1000H1000V0Z" fill="white"/>
<path d="M695.469 466.03C686.429 465.43 678.739 469.34 674.479 476.45C674.029 474.08 672.749 471.96 670.809 470.39C668.569 468.58 665.739 467.73 662.829 468C657.259 468.52 653.059 472.97 653.059 478.37V530.49C653.059 537.12 658.649 542.51 665.529 542.51C672.409 542.51 677.999 537.12 677.999 530.49V501.27C677.999 493.82 677.999 479.95 684.999 479.95C688.759 479.95 690.669 483.03 690.669 489.1C690.669 491 690.449 493.05 690.079 494.72C689.719 496.3 690.629 497.87 692.179 498.37C694.119 498.99 696.489 499.21 697.929 499.21C707.459 499.21 712.989 493.89 713.119 484.62C713.229 474.86 705.489 466.7 695.469 466.03Z" fill="#07B1BC"/>
<path d="M730.198 462.14C739.248 462.14 745.088 456.61 745.088 448.05C745.088 439.49 739.418 433.96 730.638 433.96C721.638 433.96 715.598 439.77 715.598 448.41C715.598 456.88 721.188 462.14 730.198 462.14Z" fill="#07B1BC"/>
<path d="M742.448 525.04V479.83C742.448 473.2 736.858 467.81 729.978 467.81C723.098 467.81 717.508 473.2 717.508 479.83V526.46C717.508 536.81 723.478 542.51 734.308 542.51C737.188 542.51 741.648 541.77 744.768 539.69C745.508 539.19 746.008 538.41 746.128 537.55C746.248 536.7 745.998 535.83 745.438 535.18C743.378 532.75 742.448 529.63 742.448 525.04Z" fill="#07B1BC"/>
<path d="M798.46 464.98C788.28 464.98 780.87 468.59 776.39 475.73C775.98 473.26 774.68 471.03 772.67 469.4C770.43 467.59 767.59 466.74 764.68 467.01C759.11 467.53 754.91 471.98 754.91 477.38V564.65C754.91 568 756.38 571.23 758.94 573.5C761.24 575.54 764.27 576.67 767.38 576.67C767.73 576.67 768.08 576.66 768.43 576.63C774.94 576.1 779.84 570.95 779.84 564.66V544.72C782.91 545.37 786.06 545.52 788.3 545.52C812.52 545.52 826.41 530.43 826.41 504.13C826.43 478.52 816.76 464.98 798.46 464.98ZM800.46 504.82C800.46 520.31 799.1 534.64 789.2 534.64C786.06 534.64 782.69 533.61 779.85 531.8V496.89C779.85 484.26 783.2 478.11 790.08 478.11C799.66 478.12 800.46 491.9 800.46 504.82Z" fill="#07B1BC"/>
<path d="M643.46 532.85C641.82 537.48 637.3 542.83 625.22 542.83C614.49 542.83 608.57 536.93 608.57 526.2V446.04C608.57 439.14 614.58 433.55 621.82 433.9C626.76 434.13 630.86 437.19 632.73 441.37C633.42 442.92 633.81 444.62 633.81 446.4C633.81 446.4 633.79 451.04 633.77 456.91C633.76 460.77 633.74 465.15 633.73 469.1C633.72 471.38 633.71 473.51 633.7 475.3C633.68 478.48 633.68 480.6 633.66 480.61V524.09C633.66 526.05 634.11 527.39 635.02 528.09C635.98 528.84 637.59 528.99 639.8 528.55C640.86 528.33 641.93 528.62 642.71 529.33C643.69 530.22 643.9 531.63 643.46 532.85Z" fill="#07B1BC"/>
<path d="M839.999 563.64C839.999 571.57 834.359 576.67 826.429 576.67C818.499 576.67 812.859 571.56 812.859 563.64C812.859 555.83 818.609 550.23 826.429 550.23C834.249 550.22 839.999 555.82 839.999 563.64ZM816.639 563.64C816.639 570 820.029 574.08 826.429 574.08C832.789 574.08 836.219 570 836.219 563.64C836.219 557.39 832.679 552.82 826.429 552.82C820.139 552.81 816.639 557.39 816.639 563.64ZM831.759 560.37C831.759 562.17 830.859 563.49 829.259 564.01L831.069 567.27C831.669 568.36 830.889 569.69 829.639 569.69C828.989 569.69 828.399 569.3 828.139 568.7L825.999 563.66C825.899 563.49 825.829 563.31 825.829 563.07C827.429 563.07 828.009 562.2 828.009 560.5C828.009 559.08 827.519 558.04 826.139 558.04C825.829 558.04 825.549 558.11 825.239 558.14V568.06C825.239 568.96 824.509 569.69 823.609 569.69H823.199C822.299 569.69 821.569 568.96 821.569 568.06V558.29C821.569 557.43 822.239 556.71 823.099 556.66C824.189 556.6 825.319 556.55 826.319 556.55C829.399 556.55 831.759 557.28 831.759 560.37Z" fill="#07B1BC"/>
<path opacity="0.5" d="M633.8 446.4C633.8 446.4 633.78 451.04 633.76 456.91V456.92C625.6 461.25 617.57 464.75 610.4 466.8C609.78 466.98 609.17 467.15 608.57 467.3V446.06C608.57 439.16 614.58 433.57 621.82 433.92C626.76 434.15 630.86 437.21 632.73 441.39C633.42 442.92 633.8 444.62 633.8 446.4Z" fill="url(#paint0_linear_11457_22632)"/>
<path d="M380.929 465.1C370.749 465.1 363.339 468.71 358.859 475.85C358.449 473.38 357.149 471.15 355.139 469.52C352.899 467.71 350.059 466.86 347.149 467.13C341.579 467.65 337.379 472.1 337.379 477.5V564.65C337.379 568 338.849 571.23 341.409 573.5C343.709 575.54 346.739 576.67 349.849 576.67C350.199 576.67 350.549 576.66 350.899 576.63C357.409 576.1 362.309 570.95 362.309 564.66V544.84C365.379 545.49 368.529 545.64 370.779 545.64C394.999 545.64 408.889 530.55 408.889 504.25C408.899 478.63 399.219 465.1 380.929 465.1ZM382.929 504.94C382.929 520.43 381.569 534.76 371.669 534.76C368.529 534.76 365.159 533.73 362.319 531.92V497.01C362.319 484.38 365.669 478.23 372.549 478.23C382.129 478.23 382.929 492.02 382.929 504.94Z" fill="#FF3C15"/>
<path d="M666.671 446.4C663.891 442.2 658.441 442.46 654.401 444.92C652.171 446.3 649.101 448.17 645.251 450.35C642.981 451.73 640.711 453.07 638.421 454.36C636.861 455.24 635.301 456.09 633.751 456.9V456.91C625.591 461.24 617.561 464.74 610.391 466.79C609.771 466.97 609.161 467.14 608.561 467.29C607.931 467.45 607.311 467.6 606.701 467.73C603.771 468.38 599.191 468.61 596.671 468.64C596.511 468.65 603.231 449.5 596.901 436.45C591.761 425.86 577.021 419.18 563.451 425.92C556.451 429.4 552.111 435.67 551.221 441.9C549.901 452.01 552.981 461.64 559.901 469.05C561.091 470.28 562.281 471.39 563.451 472.41C565.051 473.8 566.631 475.02 568.231 476.08C570.811 477.79 573.411 479.11 576.161 480.11L565.751 524.53L556.571 476.2C555.651 471.42 551.331 467.94 546.291 467.94H541.811C536.771 467.94 532.451 471.41 531.531 476.17L522.251 524.44L513.071 476.2C512.171 471.42 507.841 467.94 502.791 467.94H499.011C495.941 467.94 492.951 469.11 490.921 471.32C488.601 473.83 487.751 477.2 488.571 480.42L502.641 535.74C503.671 539.72 507.371 542.52 511.611 542.52H524.871C529.201 542.52 533.001 539.55 533.901 535.48L540.631 505L547.711 535.56C548.651 539.66 552.361 542.52 556.721 542.52H570.401C574.521 542.52 578.171 539.85 579.281 535.99L592.561 484.46C597.071 484.88 601.471 484.75 605.711 484.23C605.951 484.2 606.191 484.17 606.431 484.14C619.151 482.43 630.381 477.21 638.881 472.6C642.381 470.7 645.411 468.92 647.911 467.52C654.841 463.89 660.471 460.44 663.831 458.38L663.911 458.34C668.101 455.77 669.331 450.42 666.671 446.4ZM582.151 453.07C581.891 456.38 580.861 460.37 579.671 465.27C576.371 463.38 573.221 460.64 570.041 455.47C570.011 455.44 569.991 455.4 569.961 455.35C566.861 450.28 564.551 442.68 570.761 439.73C575.251 437.6 580.201 440.85 581.541 444.63C582.331 446.4 582.461 448.97 582.151 453.07Z" fill="#FF3C15"/>
<path d="M483.209 527.03V492.77C483.209 473.28 473.619 464.97 451.129 464.97C435.719 464.97 417.719 469.62 417.719 482.72C417.719 490.09 423.539 494.67 432.909 494.67C434.899 494.67 438.559 494.24 440.479 493.07L441.179 492.64L441.029 491.85C440.589 489.58 440.169 487.43 440.169 485.27C440.169 478.83 443.789 475.13 450.099 475.13C456.129 475.13 458.269 478.41 458.269 487.68V498.81C445.779 498.84 413.309 499.62 413.309 522.93C413.309 538.52 427.429 545.49 441.429 545.49C450.399 545.49 457.259 542.66 461.059 537.45C463.539 541.96 468.609 544.5 475.359 544.5C480.629 544.5 484.159 542.6 486.169 541.05C487.299 540.18 487.499 538.58 486.599 537.48C485.139 535.68 483.209 532.31 483.209 527.03ZM458.269 508.26V518.95C458.269 522.32 457.549 533.34 448.339 533.34C441.449 533.34 438.989 527.66 438.989 522.35C438.989 513.15 445.299 508.53 458.269 508.26Z" fill="#FF3C15"/>
<path opacity="0.4" d="M579.659 465.27L576.179 480.11C573.429 479.11 570.819 477.79 568.249 476.08C566.649 475.02 565.069 473.8 563.469 472.41L569.949 455.35C569.979 455.39 569.999 455.43 570.029 455.47C573.209 460.64 576.359 463.38 579.659 465.27Z" fill="url(#paint1_linear_11457_22632)"/>
<path d="M249.92 594.65C248.14 594.65 246.31 594.46 244.43 594.08C236.97 592.57 229.86 588.28 223.58 584.5C219.64 582.13 215.58 579.68 212.73 578.8C209.82 578.21 205.07 578.42 200.48 578.62C193.16 578.94 184.85 579.3 177.58 577.07C167.87 574.08 161.9 566.99 160.31 556.57C157.48 538.04 173.98 530.8 184.9 526.01C190.32 523.63 195.92 521.17 197.92 518.44C206.22 507.05 219.08 501.9 231.48 504.99L231.56 505.01C243.94 508.23 252.76 518.91 254.6 532.88C255.04 536.24 258.79 541.08 262.41 545.76C269.71 555.19 280.74 569.43 269.39 584.35C264.23 591.14 257.57 594.65 249.92 594.65ZM207.36 562.68C210.56 562.68 213.6 562.87 216.4 563.5L216.84 563.61C221.7 565 226.56 567.92 231.7 571.02C246.15 579.72 251.81 581.49 256.89 574.81C260.38 570.22 258.33 566.13 249.99 555.36C245.09 549.03 240.02 542.48 239.02 534.91C238.02 527.32 233.77 521.83 227.65 520.22C221.5 518.7 215.14 521.49 210.64 527.68C206.14 533.85 198.56 537.18 191.23 540.39C178.75 545.87 175 548.48 175.87 554.18C177.13 562.48 182.96 563.63 199.81 562.9C202.39 562.79 204.92 562.68 207.36 562.68Z" fill="#FF3C15"/>
<path d="M305.091 452.54C301.061 448.76 295.791 446.79 290.271 446.97C284.751 447.16 279.631 449.48 275.851 453.51L275.711 453.67C275.351 454.07 266.991 463.54 262.611 471.76C260.831 475.1 259.481 478.58 258.561 482.1C257.971 484.35 257.551 486.62 257.301 488.9C257.261 488.88 257.221 488.86 257.181 488.84C257.171 488.83 257.161 488.83 257.151 488.82C256.331 488.42 255.551 487.97 254.811 487.49C253.141 486.41 251.661 485.13 250.341 483.71C249.551 482.85 248.831 481.95 248.151 481C248.141 480.99 248.121 480.97 248.121 480.96V480.95C249.481 479.63 250.811 478.21 252.131 476.71C261.531 465.83 266.891 453.06 268.651 448.86C268.781 448.55 268.891 448.29 268.971 448.11C271.801 441.6 273.111 435.15 273.391 433.66C274.791 427.86 273.801 421.77 270.591 416.47C267.381 411.17 262.291 407.35 256.611 406C244.451 403.1 232.071 410.41 228.871 422.33C228.401 423.78 226.471 430.07 225.841 437.14C225.831 437.34 225.801 437.62 225.761 437.96C225.371 441.83 224.291 452.46 225.891 464.25C226.161 466.25 226.511 468.28 226.951 470.32C227.381 472.27 227.881 474.15 228.441 475.96H228.431C224.801 477.76 220.851 478.74 216.561 478.55C218.801 473.11 220.051 467.17 220.101 460.95C220.181 451.64 217.361 439.32 217.251 438.8L217.201 438.59C215.811 433.24 212.431 428.75 207.671 425.95C202.911 423.15 197.341 422.36 191.991 423.75C181.701 426.42 175.131 436.35 176.721 446.86L176.801 447.36L176.811 447.39C177.861 453.86 181.741 471.77 193.501 484.29C189.471 487.72 184.511 490.11 179.011 491.03C175.831 491.56 174.101 491.33 173.351 491.13C169.141 490.06 164.861 492.6 163.791 496.81C162.721 501.02 165.261 505.3 169.471 506.37C172.931 507.25 177.011 507.3 181.601 506.54C191.701 504.85 200.561 499.94 207.231 492.94C207.321 492.96 207.401 492.98 207.491 493C217.201 495.47 226.581 494.5 235.281 490.2C237.711 493.65 240.561 496.62 243.801 499.08C245.091 500.06 246.451 500.96 247.871 501.77C251.051 503.59 254.551 505 258.341 505.96C258.431 505.98 258.511 506 258.601 506.02V506.03C258.621 506.11 258.641 506.19 258.671 506.27C258.681 506.3 258.691 506.33 258.701 506.37C259.581 509.55 260.801 512.64 262.351 515.56C265.281 521.13 269.391 526.14 274.611 530.23C278.281 533.1 281.881 535 285.351 535.89C286.001 536.06 286.661 536.13 287.301 536.13C290.811 536.13 294.011 533.77 294.911 530.21C295.981 526 293.441 521.72 289.231 520.65C288.481 520.46 286.851 519.84 284.311 517.85C282.391 516.35 280.701 514.65 279.241 512.8C277.361 510.42 275.881 507.78 274.801 505C290.801 499.74 302.611 486.3 306.861 480.89L307.431 480.15C313.871 471.67 312.861 459.81 305.091 452.54ZM202.691 470.83C195.221 461.04 192.761 447.58 192.281 444.48V444.44C191.931 441.95 193.501 439.6 195.951 438.97C197.231 438.64 198.571 438.82 199.711 439.5C200.831 440.16 201.621 441.19 201.981 442.44C202.251 443.65 204.471 453.8 204.401 460.82C204.371 464.32 203.771 467.69 202.691 470.83ZM241.871 464.4C241.861 464.35 241.861 464.3 241.851 464.25C241.261 460.8 240.971 457.27 240.861 453.84C240.711 448.68 241.001 443.73 241.421 439.54C241.461 439.12 241.501 438.77 241.521 438.52C242.051 432.56 243.851 427.12 243.871 427.08L244.041 426.49C244.881 423.21 247.811 421.07 251.131 421.07C251.731 421.07 252.351 421.14 252.961 421.29C254.551 421.67 256.111 422.91 257.131 424.6C258.181 426.33 258.531 428.33 258.081 430.07L257.961 430.66C257.951 430.72 256.941 436.35 254.551 441.84C254.451 442.07 254.311 442.39 254.151 442.79C251.411 449.28 247.321 457.48 241.871 464.4ZM294.981 470.56L294.941 470.62C293.031 473.12 284.431 483.79 273.201 488.8C273.601 486.42 274.281 484.05 275.251 481.75C275.621 480.88 276.031 480.02 276.491 479.17C279.801 472.97 286.611 465.11 287.411 464.19C288.311 463.26 289.511 462.73 290.801 462.69C292.131 462.65 293.381 463.12 294.351 464.02C296.191 465.75 296.451 468.54 294.981 470.56Z" fill="#FF3C15"/>
<path opacity="0.35" d="M275.249 481.75C274.279 484.05 273.599 486.41 273.199 488.8C268.939 490.36 261.449 490.54 257.309 488.91C257.559 486.63 257.969 484.36 258.569 482.11C263.649 482.86 270.439 482.64 275.249 481.75Z" fill="url(#paint2_linear_11457_22632)"/>
<path opacity="0.35" d="M241.87 464.4V464.42C237.61 469.82 233.12 473.7 228.48 476.03C228.47 476.01 228.47 475.98 228.45 475.95H228.46C227.9 474.14 227.4 472.25 226.97 470.31C226.53 468.27 226.18 466.24 225.91 464.24C230.39 461.66 237.13 457.51 240.86 453.84C240.96 457.27 241.26 460.8 241.85 464.25C241.85 464.3 241.85 464.35 241.87 464.4Z" fill="url(#paint3_linear_11457_22632)"/>
<path opacity="0.35" d="M202.691 470.83C200.871 476.11 197.681 480.76 193.521 484.3C192.421 483.13 191.391 481.91 190.421 480.66L187.051 475.76C191.561 471.94 196.901 469.16 198.001 463.07C199.221 465.82 201.361 469.1 202.691 470.83Z" fill="url(#paint4_linear_11457_22632)"/>
</g>
<defs>
<linearGradient id="paint0_linear_11457_22632" x1="623.246" y1="466.33" x2="616.693" y2="434.208" gradientUnits="userSpaceOnUse">
<stop/>
<stop offset="0.1929" stop-color="#012427" stop-opacity="0.806"/>
<stop offset="0.7473" stop-color="#058991" stop-opacity="0.2485"/>
<stop offset="0.9944" stop-color="#07B1BC" stop-opacity="0"/>
</linearGradient>
<linearGradient id="paint1_linear_11457_22632" x1="579.935" y1="470.102" x2="568.557" y2="466.167" gradientUnits="userSpaceOnUse">
<stop/>
<stop offset="1" stop-opacity="0"/>
</linearGradient>
<linearGradient id="paint2_linear_11457_22632" x1="266.238" y1="489.803" x2="266.293" y2="483.166" gradientUnits="userSpaceOnUse">
<stop/>
<stop offset="1" stop-opacity="0"/>
</linearGradient>
<linearGradient id="paint3_linear_11457_22632" x1="237.191" y1="469.073" x2="232.471" y2="461.321" gradientUnits="userSpaceOnUse">
<stop/>
<stop offset="1" stop-opacity="0"/>
</linearGradient>
<linearGradient id="paint4_linear_11457_22632" x1="199.1" y1="476.114" x2="194.225" y2="472.559" gradientUnits="userSpaceOnUse">
<stop/>
<stop offset="1" stop-opacity="0"/>
</linearGradient>
<clipPath id="clip0_11457_22632">
<rect width="1000" height="1000" fill="white"/>
</clipPath>
</defs>
</svg>
